<svg xmlns="http://www.w3.org/2000/svg" width="760" height="250" viewBox="0 0 760 250"><rect width="100%" height="100%" rx="12" fill="#0D1117"/><text x="28" y="38" font-family="Arial" font-size="18" fill="#58A6FF" font-weight="700">Most Used Languages</text><rect x="28" y="60" width="477" height="14" rx="0" fill="#F1E05A"/><rect x="505" y="60" width="82" height="14" fill="#E34C26"/><rect x="587" y="60" width="70" height="14" fill="#3572A5"/><rect x="657" y="60" width="32" height="14" fill="#00B4AB"/><rect x="689" y="60" width="24" height="14" fill="#B07219"/><rect x="713" y="60" width="18" height="14" rx="0" fill="#563D7C"/><circle cx="35" cy="105" r="6" fill="#F1E05A"/><text x="51" y="110" font-family="Arial" font-size="13" fill="#C9D1D9">JavaScript</text><text x="220" y="110" font-family="Arial" font-size="13" fill="#8B949E">67.84%</text><circle cx="35" cy="143" r="6" fill="#E34C26"/><text x="51" y="148" font-family="Arial" font-size="13" fill="#C9D1D9">HTML</text><text x="220" y="148" font-family="Arial" font-size="13" fill="#8B949E">11.63%</text><circle cx="35" cy="181" r="6" fill="#3572A5"/><text x="51" y="186" font-family="Arial" font-size="13" fill="#C9D1D9">Python</text><text x="220" y="186" font-family="Arial" font-size="13" fill="#8B949E">9.99%</text><circle cx="390" cy="105" r="6" fill="#00B4AB"/><text x="406" y="110" font-family="Arial" font-size="13" fill="#C9D1D9">Dart</text><text x="575" y="110" font-family="Arial" font-size="13" fill="#8B949E">4.51%</text><circle cx="390" cy="143" r="6" fill="#B07219"/><text x="406" y="148" font-family="Arial" font-size="13" fill="#C9D1D9">Java</text><text x="575" y="148" font-family="Arial" font-size="13" fill="#8B949E">3.42%</text><circle cx="390" cy="181" r="6" fill="#563D7C"/><text x="406" y="186" font-family="Arial" font-size="13" fill="#C9D1D9">CSS</text><text x="575" y="186" font-family="Arial" font-size="13" fill="#8B949E">2.60%</text><text x="28" y="232" font-family="Arial" font-size="10" fill="#6E7681">Initial values mirror the current card; GitHub Actions refreshes them automatically.</text></svg>